<svg width="203" height="17" xmlns="http://www.w3.org/2000/svg">
 <!-- Created with Method Draw - http://github.com/duopixel/Method-Draw/ -->

 <g>
  <title>background</title>
  <rect fill="none" id="canvas_background" height="19" width="205" y="-1" x="-1"/>
  <g display="none" overflow="visible" y="0" x="0" height="100%" width="100%" id="canvasGrid">
   <rect fill="url(#gridpattern)" stroke-width="0" y="0" x="0" height="100%" width="100%"/>
  </g>
 </g>
 <g>
  <title>Layer 1</title>
  <g stroke="null" id="svg_219">
   <polygon stroke="null" id="svg_151" points="123.16243912279606,13.089982986450195 124.50725723803043,5.528918266296387 126.60788132250309,5.528918266296387 125.3047349601984,13.089982986450195 " fill="#AAABAB"/>
   <polygon stroke="null" id="svg_152" points="123.16243912279606,13.089982986450195 124.88607193529606,5.528918266296387 126.60788132250309,5.528918266296387 125.3047349601984,13.089982986450195 " fill="#AAABAB"/>
   <path stroke="null" id="svg_153" d="m132.907854,5.613248c-0.420136,-0.168117 -1.091979,-0.335921 -1.932252,-0.335921c-2.100056,0 -3.612485,1.050028 -3.612485,2.562143c0,1.134243 1.050028,1.722184 1.890301,2.100056s1.091979,0.630205 1.091979,0.966126c0,0.504038 -0.672156,0.756058 -1.260096,0.756058c-0.83996,0 -1.302047,-0.126166 -2.016154,-0.420136l-0.29397,-0.126166l-0.29397,1.722184c0.504038,0.210068 1.428213,0.420136 2.394339,0.420136c2.226222,0 3.696387,-1.050028 3.696387,-2.646359c0,-0.882224 -0.54599,-1.554067 -1.806086,-2.100056c-0.756058,-0.378185 -1.218145,-0.587941 -1.218145,-0.966126c0,-0.335921 0.378185,-0.672156 1.218145,-0.672156c0.714107,0 1.218145,0.126166 1.596018,0.29397l0.210068,0.083902l0.335921,-1.637656l0,0z" fill="#AAABAB"/>
   <path stroke="null" id="svg_154" d="m132.907854,5.613248c-0.420136,-0.168117 -1.091979,-0.335921 -1.932252,-0.335921c-2.100056,0 -3.234299,1.050028 -3.234299,2.562143c0,1.134243 0.672156,1.722184 1.512115,2.100056s1.091979,0.630205 1.091979,0.966126c0,0.504038 -0.672156,0.756058 -1.260096,0.756058c-0.83996,0 -1.302047,-0.126166 -2.016154,-0.420136l-0.29397,-0.126166l-0.29397,1.722184c0.504038,0.210068 1.428213,0.420136 2.394339,0.420136c2.226222,0 3.696387,-1.050028 3.696387,-2.646359c0,-0.882224 -0.54599,-1.554067 -1.806086,-2.100056c-0.756058,-0.378185 -1.218145,-0.587941 -1.218145,-0.966126c0,-0.335921 0.378185,-0.672156 1.218145,-0.672156c0.714107,0 1.218145,0.126166 1.596018,0.29397l0.210068,0.083902l0.335921,-1.637656l0,0z" fill="#AAABAB"/>
   <path stroke="null" id="svg_155" d="m136.520338,5.529033c-0.504038,0 -0.882224,0.041951 -1.091979,0.54599l-3.150397,7.014901l2.268173,0l0.420136,-1.260096l2.68831,0l0.252019,1.260096l2.016154,0l-1.764135,-7.560577l-1.638282,0l0,-0.000313zm-0.966126,5.040698c0.125853,-0.378185 0.83996,-2.226222 0.83996,-2.226222s0.168117,-0.462087 0.29397,-0.756058l0.125853,0.714107c0,0 0.420136,1.890301 0.504038,2.310124l-1.764135,0l0,-0.041951l0.000313,0z" fill="#AAABAB"/>
   <path stroke="null" id="svg_156" d="m137.024377,5.529033c-0.504038,0 -0.882224,0.041951 -1.091979,0.54599l-3.654436,7.014901l2.268173,0l0.420136,-1.260096l2.68831,0l0.252019,1.260096l2.016154,0l-1.764135,-7.560577l-1.134243,0l0,-0.000313zm-1.470164,5.040698c0.168117,-0.420136 0.83996,-2.226222 0.83996,-2.226222s0.168117,-0.462087 0.29397,-0.756058l0.125853,0.714107c0,0 0.420136,1.890301 0.504038,2.310124l-1.764135,0l0,-0.041951l0.000313,0z" fill="#AAABAB"/>
   <path stroke="null" id="svg_157" d="m119.298501,10.82175l-0.210068,-1.091979c-0.378185,-1.260096 -1.596018,-2.646359 -2.940329,-3.318201l1.890301,6.720618l2.268173,0l3.402416,-7.560577l-2.268173,0l-2.14232,5.25014z" fill="#AAABAB"/>
   <path stroke="null" id="svg_158" d="m119.298501,10.82175l-0.210068,-1.091979c-0.378185,-1.260096 -1.596018,-2.646359 -2.940329,-3.318201l1.890301,6.720618l2.268173,0l3.402416,-7.560577l-1.848037,0l-2.562457,5.25014z" fill="#AAABAB"/>
   <path stroke="null" id="svg_159" d="m113.460108,5.529033l0.378185,0.083902c2.68831,0.630205 4.536346,2.226222 5.250453,4.116523l-0.756058,-3.57022c-0.126166,-0.504038 -0.504038,-0.630205 -0.966126,-0.630205l-3.906455,0z" fill="#AAABAB"/>
   <path stroke="null" id="svg_160" d="m113.460108,5.529033l0,0c2.68831,0.630205 4.914532,2.268173 5.628639,4.158474l-0.714107,-2.98228c-0.125853,-0.504038 -0.54599,-0.798009 -1.008077,-0.798009l-3.906455,-0.378185z" fill="#AAABAB"/>
   <path stroke="null" id="svg_161" d="m113.460108,5.529033l0,0c2.68831,0.630205 4.914532,2.268173 5.628639,4.158474l-0.504038,-1.638282c-0.125853,-0.504038 -0.29397,-1.008077 -0.882224,-1.218145l-4.242376,-1.302047z" fill="#AAABAB"/>
   <g stroke="null" transform="matrix(0.31306738697307007,0,0,0.31306738697307007,-23870.315598903555,-2000.2871202497445) " id="svg_162">
    <path stroke="null" id="svg_163" d="m76634.349517,6423.080126l-4.562,-4.562l-2.147,5.098l-0.537,-3.354c-1.208,-4.025 -5.098,-8.453 -9.392,-10.599l6.038,21.467l7.245,0l3.355,-8.05z" fill="#AAABAB"/>
    <polygon stroke="null" id="svg_164" points="76646.83030176163,6431.130371093749 76641.05686426163,6425.226562499999 76639.98655176163,6431.130371093749 " fill="#AAABAB"/>
    <path stroke="null" id="svg_165" d="m76662.256517,6422.811126l0,0c0.537,0.537 0.805,0.939 0.671,1.476c0,1.61 -2.147,2.415 -4.025,2.415c-2.683,0 -4.159,-0.403 -6.44,-1.342l-0.939,-0.403l-0.939,5.501c1.61,0.671 4.562,1.342 7.648,1.342c4.293,0 7.782,-1.208 9.794,-3.354l-5.77,-5.635z" fill="#AAABAB"/>
    <path stroke="null" id="svg_166" d="m76670.038517,6431.130126l6.306,0l1.342,-4.025l8.587,0l0.805,4.025l6.44,0l-2.281,-9.794l-8.05,-7.782l0.402,2.147c0,0 1.342,6.038 1.61,7.379l-5.635,0c0.537,-1.342 2.683,-7.111 2.683,-7.111s0.537,-1.476 0.939,-2.415" fill="#AAABAB"/>
   </g>
   <path stroke="null" id="svg_167" d="m195.057678,6.830767c-0.946716,0 -1.704026,0.252332 -2.33517,0.378812l-0.189406,1.451693c0.315572,-0.126166 1.199048,-0.378812 1.956358,-0.441738c0.75731,0 1.199048,0.126166 1.072882,0.82055c-2.27193,0 -3.786863,0.441738 -4.102435,1.956358c-0.441738,2.524575 2.33517,2.587502 3.408052,1.451693l-0.126166,0.694383l2.019598,0l0.883476,-4.102435c0.315885,-1.704652 -1.198735,-2.272556 -2.587189,-2.209317zm0.126166,4.228601c-0.126166,0.504978 -0.567904,0.694383 -1.072882,0.75731c-0.441738,0 -0.82055,-0.252332 -0.567904,-0.75731c0.252332,-0.378812 0.82055,-0.378812 1.262288,-0.378812c0.126166,0 0.315572,0 0.504978,0c-0.06324,-0.06324 -0.126479,0.189406 -0.126479,0.378812z" fill="#AAABAB"/>
   <path stroke="null" id="svg_168" d="m192.533103,8.660959c0.315572,-0.126166 1.199048,-0.378812 1.956358,-0.441738c0.75731,0 1.199048,0.126166 1.072882,0.82055c-2.27193,0 -3.786863,0.441738 -4.102435,1.956358c-0.441738,2.524575 2.33517,2.587502 3.408052,1.451693l-0.126166,0.694383l2.019598,0l0.883476,-4.102435c0.378812,-1.704026 -1.199048,-2.145764 -2.587502,-2.145764m0.126479,4.165362c-0.126166,0.504978 -0.567904,0.694383 -1.072882,0.75731c-0.441738,0 -0.82055,-0.252332 -0.567904,-0.75731c0.252332,-0.378812 0.82055,-0.378812 1.262288,-0.378812c0.126166,0 0.315572,0 0.504978,0c-0.06324,-0.06324 -0.126479,0.189406 -0.126479,0.378812z" fill="#AAABAB"/>
   <polygon stroke="null" id="svg_169" points="199.34855057299137,4.937381744384766 197.7082765251398,13.141864776611328 199.72735001146793,13.141864776611328 201.43287064135075,4.937381744384766 " fill="#AAABAB"/>
   <polygon stroke="null" id="svg_170" points="200.8003175407648,4.937381744384766 197.7082765251398,13.141864776611328 199.72735001146793,13.141864776611328 201.43287064135075,4.937381744384766 199.34855057299137,4.937381744384766 199.34855057299137,4.937381744384766 " fill="#AAABAB"/>
   <path stroke="null" id="svg_171" d="m189.945601,4.937335l-3.723624,0l-1.640786,8.204557l2.209003,0l0.567904,-2.524575l1.57786,0c1.51462,0 2.776908,-0.883476 3.09248,-2.461336c0.315259,-1.830192 -1.009955,-3.218646 -2.082837,-3.218646zm-0.06324,2.840147c-0.126166,0.567904 -0.694383,0.946716 -1.262288,0.946716l-1.009955,0l0.441738,-1.893432l1.072882,0c0.568217,0 0.883789,0.378498 0.757623,0.946716z" fill="#AAABAB"/>
   <path stroke="null" id="svg_172" d="m189.945601,4.937335l-2.524575,0l-2.903074,8.204557l2.209003,0l0.567904,-2.524575l1.57786,0c1.51462,0 2.776908,-0.883476 3.09248,-2.461336c0.378498,-1.830192 -0.946716,-3.218646 -2.019598,-3.218646zm-0.06324,2.840147c-0.126166,0.567904 -0.694383,0.946716 -1.262288,0.946716l-1.009955,0l0.441738,-1.893432l1.072882,0c0.568217,0 0.883789,0.378498 0.757623,0.946716z" fill="#AAABAB"/>
   <path stroke="null" id="svg_173" d="m175.366366,6.830767c-0.946716,0 -1.704026,0.252332 -2.27193,0.378812l-0.189406,1.451693c0.252332,-0.126166 1.199048,-0.378812 1.956358,-0.441738c0.75731,0 1.199048,0.126166 1.072882,0.82055c-2.209003,0 -3.723624,0.441738 -4.039195,1.956358c-0.441738,2.524575 2.27193,2.587502 3.345125,1.451693l-0.126166,0.694383l2.019598,0l0.883476,-4.102435c0.315572,-1.704652 -1.262288,-2.272556 -2.650742,-2.209317zm0.189406,4.228601c-0.126166,0.504978 -0.567904,0.694383 -1.072882,0.75731c-0.441738,0 -0.82055,-0.252332 -0.504978,-0.75731c0.252332,-0.378812 0.82055,-0.378812 1.199048,-0.378812c0.189406,0 0.315572,0 0.504978,0c-0.06324,-0.06324 -0.126166,0.189406 -0.126166,0.378812z" fill="#AAABAB"/>
   <path stroke="null" id="svg_174" d="m172.967957,8.660959c0.252332,-0.126166 1.199048,-0.378812 1.956358,-0.441738c0.75731,0 1.199048,0.126166 1.072882,0.82055c-2.209003,0 -3.723624,0.441738 -4.039195,1.956358c-0.441738,2.524575 2.27193,2.587502 3.345125,1.451693l-0.189406,0.694383l2.019598,0l0.883476,-4.102435c0.378812,-1.704026 -1.199048,-2.145764 -2.587502,-2.145764m0.126479,4.165362c-0.126166,0.504978 -0.567904,0.694383 -1.072882,0.75731c-0.441738,0 -0.82055,-0.252332 -0.504978,-0.75731c0.252332,-0.378812 0.82055,-0.378812 1.199048,-0.378812c0.189406,0 0.315572,0 0.504978,0c-0.06324,-0.06324 -0.126166,0.189406 -0.126166,0.378812z" fill="#AAABAB"/>
   <polygon stroke="null" id="svg_175" points="178.83712173998356,6.830705642700195 180.85799576342106,6.830705642700195 181.17334915697575,10.364973068237305 183.19242264330387,6.830705642700195 185.27491165697575,6.830705642700195 180.4791963249445,15.666372299194336 178.206369176507,15.666372299194336 179.6581514030695,13.015673637390137 " fill="#AAABAB"/>
   <polyline stroke="null" id="svg_176" points="180.85799576342106,6.956897735595703 181.17334915697575,10.428181648254395 183.19242264330387,6.830705642700195 185.27491165697575,6.830705642700195 180.4791963249445,15.666372299194336 178.206369176507,15.666372299194336 179.6581514030695,13.078882217407227 " fill="#AAABAB"/>
   <path stroke="null" id="svg_177" d="m170.380455,4.937335l-3.786863,0l-1.640786,8.204557l2.209003,0l0.567904,-2.524575l1.57786,0c1.51462,0 2.776908,-0.883476 3.09248,-2.461336c0.378812,-1.830192 -0.946716,-3.218646 -2.019598,-3.218646zm-0.06324,2.840147c-0.126166,0.567904 -0.694383,0.946716 -1.262288,0.946716l-1.009955,0l0.441738,-1.893432l1.072882,0c0.56853,0 0.884102,0.378498 0.757623,0.946716z" fill="#AAABAB"/>
   <path stroke="null" id="svg_178" d="m170.380455,4.937335l-1.704026,0l-3.723624,8.204557l2.209003,0l0.567904,-2.524575l1.57786,0c1.51462,0 2.776908,-0.883476 3.09248,-2.461336c0.378812,-1.830192 -0.946716,-3.218646 -2.019598,-3.218646zm-0.06324,2.840147c-0.126166,0.567904 -0.694383,0.946716 -1.262288,0.946716l-1.009955,0l0.441738,-1.893432l1.072882,0c0.56853,0 0.884102,0.378498 0.757623,0.946716z" fill="#AAABAB"/>
   <g stroke="null" transform="matrix(0.31306738697307007,0,0,0.31306738697307007,-23870.315598903555,-2000.2871202497445) " id="svg_179">
    <path stroke="null" id="svg_180" d="m76805.522517,6418.192126c-5.443,0.403 -9.072,2.016 -9.878,6.048c-1.411,8.064 7.257,8.265 10.685,4.637l-0.403,2.419l6.451,0l1.008,-4.838l-7.863,-8.266zm1.815,6.452c-0.403,1.613 -1.814,2.218 -3.427,2.419c-1.411,0 -2.621,-0.806 -1.613,-2.419c0.806,-1.21 2.621,-1.21 3.83,-1.21c0.605,0 1.008,0 1.613,0c-0.202,-0.202 -0.403,0.605 -0.403,1.21z" fill="#AAABAB"/>
    <polygon stroke="null" id="svg_181" points="76825.68186426163,6422.224121093749 76825.28342676163,6422.829589843749 76829.51780176163,6426.861328124999 76838.38498926163,6411.137207031249 76831.73655176163,6411.137207031249 " fill="#AAABAB"/>
    <polygon stroke="null" id="svg_182" points="76780.52561426163,6431.296386718749 76782.34592676163,6423.232421874999 76774.08030176163,6431.296386718749 " fill="#AAABAB"/>
   </g>
   <g stroke="null" transform="matrix(0.31306738697307007,0,0,0.31306738697307007,-23870.315598903555,-2000.2871202497445) " id="svg_183">
    <polygon stroke="null" id="svg_184" points="76843.02561426163,6431.296386718749 76844.83811426163,6422.829589843749 76844.83811426163,6423.031249999999 76836.57248926163,6431.296386718749 " fill="#AAABAB"/>
    <path stroke="null" id="svg_185" d="m76868.219517,6418.192126c-5.443,0.403 -9.072,2.016 -9.878,6.048c-1.411,8.064 7.459,8.265 10.886,4.637l-0.605,2.419l6.451,0l1.008,-4.838l-7.862,-8.266zm1.814,6.452c-0.403,1.613 -1.814,2.218 -3.427,2.419c-1.411,0 -2.621,-0.806 -1.814,-2.419c0.806,-1.21 2.621,-1.21 4.032,-1.21c0.403,0 1.008,0 1.613,0c-0.202,-0.202 -0.404,0.605 -0.404,1.21z" fill="#AAABAB"/>
    <polygon stroke="null" id="svg_186" points="76882.73655176163,6419.402343749999 76878.10373926163,6431.296386718749 76884.54905176163,6431.296386718749 76886.36155176163,6423.232421874999 " fill="#AAABAB"/>
   </g>
   <path stroke="null" id="svg_187" d="m89.006414,7.518576c0,3.368605 -2.720869,6.12172 -6.12172,6.12172c-3.368605,0 -6.12172,-2.753115 -6.12172,-6.12172l0,0c0,-3.368605 2.720869,-6.12172 6.089161,-6.12172c3.43341,0 6.154279,2.753115 6.154279,6.12172l0,0z" fill="#AAABAB"/>
   <path stroke="null" id="svg_188" d="m82.884694,1.396856c3.368605,0 6.12172,2.753115 6.12172,6.12172l0,0c0,3.368605 -2.720869,6.12172 -6.12172,6.12172c-3.368605,0 -6.12172,-2.753115 -6.12172,-6.12172" fill="#AAABAB"/>
   <path stroke="null" id="svg_189" d="m82.884694,1.396856c3.368605,0 6.12172,2.753115 6.12172,6.12172l0,0c0,3.368605 -2.720869,6.12172 -6.12172,6.12172" fill="#AAABAB"/>
   <path stroke="null" id="svg_190" d="m74.657597,1.396856c-3.336046,0.032246 -6.056915,2.753115 -6.056915,6.12172s2.720869,6.12172 6.12172,6.12172c1.587252,0 3.012334,-0.61549 4.113392,-1.587252l0,0l0,0c0.226661,-0.194415 0.421076,-0.421076 0.61549,-0.647736l-1.263227,0c-0.161856,-0.194415 -0.324025,-0.421076 -0.453322,-0.61549l2.170183,0c0.12961,-0.194415 0.25922,-0.421076 0.356271,-0.647736l-2.882724,0c-0.097051,-0.194415 -0.194415,-0.421076 -0.25922,-0.647736l3.368605,0c0.194415,-0.61549 0.324025,-1.263227 0.324025,-1.943522c0,-0.453322 -0.064805,-0.874397 -0.12961,-1.295473l-3.757122,0c0.032246,-0.226661 0.097051,-0.421076 0.161856,-0.647736l3.368605,0c-0.064805,-0.226661 -0.161856,-0.453322 -0.25922,-0.647736l-2.850165,0c0.097051,-0.226661 0.226661,-0.421076 0.356271,-0.647736l2.170183,0c-0.12961,-0.226661 -0.291466,-0.453322 -0.485881,-0.647736l-1.198422,0c0.194415,-0.226661 0.38883,-0.421076 0.61549,-0.61549c-1.068812,-1.004007 -2.526454,-1.587252 -4.113392,-1.587252c-0.000313,-0.064805 -0.000313,-0.064805 -0.032872,-0.064805z" fill="#AAABAB"/>
   <path stroke="null" id="svg_191" d="m68.600682,7.518576c0,3.368605 2.720869,6.12172 6.12172,6.12172c1.587252,0 3.012334,-0.61549 4.113392,-1.587252l0,0l0,0c0.226661,-0.194415 0.421076,-0.421076 0.61549,-0.647736l-1.263227,0c-0.161856,-0.194415 -0.324025,-0.421076 -0.453322,-0.61549l2.170183,0c0.12961,-0.194415 0.25922,-0.421076 0.356271,-0.647736l-2.882724,0c-0.097051,-0.194415 -0.194415,-0.421076 -0.25922,-0.647736l3.368605,0c0.194415,-0.61549 0.324025,-1.263227 0.324025,-1.943522c0,-0.453322 -0.064805,-0.874397 -0.12961,-1.295473l-3.757122,0c0.032246,-0.226661 0.097051,-0.421076 0.161856,-0.647736l3.368605,0c-0.064805,-0.226661 -0.161856,-0.453322 -0.25922,-0.647736l-2.850165,0c0.097051,-0.226661 0.226661,-0.421076 0.356271,-0.647736l2.170183,0c-0.12961,-0.226661 -0.291466,-0.453322 -0.485881,-0.647736l-1.198422,0c0.194415,-0.226661 0.38883,-0.421076 0.61549,-0.61549c-1.068812,-1.004007 -2.526454,-1.587252 -4.113392,-1.587252l-0.032246,0" fill="#AAABAB"/>
   <path stroke="null" id="svg_192" d="m74.722401,13.640296c1.587252,0 3.012334,-0.61549 4.113392,-1.587252l0,0l0,0c0.226661,-0.194415 0.421076,-0.421076 0.61549,-0.647736l-1.263227,0c-0.161856,-0.194415 -0.324025,-0.421076 -0.453322,-0.61549l2.170183,0c0.12961,-0.194415 0.25922,-0.421076 0.356271,-0.647736l-2.882724,0c-0.097051,-0.194415 -0.194415,-0.421076 -0.25922,-0.647736l3.368605,0c0.194415,-0.61549 0.324025,-1.263227 0.324025,-1.943522c0,-0.453322 -0.064805,-0.874397 -0.12961,-1.295473l-3.757122,0c0.032246,-0.226661 0.097051,-0.421076 0.161856,-0.647736l3.368605,0c-0.064805,-0.226661 -0.161856,-0.453322 -0.25922,-0.647736l-2.850165,0c0.097051,-0.226661 0.226661,-0.421076 0.356271,-0.647736l2.170183,0c-0.12961,-0.226661 -0.291466,-0.453322 -0.485881,-0.647736l-1.198422,0c0.194415,-0.226661 0.38883,-0.421076 0.61549,-0.61549c-1.068812,-1.004007 -2.526454,-1.587252 -4.113392,-1.587252l-0.032246,0" fill="#AAABAB"/>
   <g stroke="null" transform="matrix(0.31306738697307007,0,0,0.31306738697307007,-23870.315598903555,-2000.2871202497445) " id="svg_193">
    <path stroke="null" id="svg_194" d="m76492.187517,6418.300126l0.31,-1.759c-0.103,0 -0.31,0.103 -0.517,0.103c-0.724,0 -0.828,-0.414 -0.724,-0.621l0.621,-3.621l1.138,0l0.31,-1.966l-1.034,0l0.207,-1.242l-2.069,0c0,0 -1.242,6.828 -1.242,7.656c0,1.242 0.724,1.759 1.655,1.759c0.621,0.001 1.138,-0.206 1.345,-0.309z" fill="#5A595A"/>
    <path stroke="null" id="svg_195" d="m76492.911517,6414.989126c0,2.897 1.966,3.621 3.621,3.621c1.552,0 2.173,-0.31 2.173,-0.31l0.414,-1.966c0,0 -1.138,0.517 -2.173,0.517c-2.276,0 -1.862,-1.655 -1.862,-1.655l4.242,0c0,0 0.31,-1.345 0.31,-1.862c0,-1.345 -0.724,-3 -3,-3c-2.173,-0.207 -3.725,2.069 -3.725,4.655zm3.621,-3c1.138,0 0.931,1.345 0.931,1.448l-2.276,0c0,-0.103 0.207,-1.448 1.345,-1.448z" fill="#5A595A"/>
    <path stroke="null" id="svg_196" d="m76509.672517,6418.300126l0.414,-2.276c0,0 -1.035,0.517 -1.759,0.517c-1.448,0 -2.069,-1.138 -2.069,-2.38c0,-2.483 1.242,-3.828 2.69,-3.828c1.035,0 1.862,0.621 1.862,0.621l0.31,-2.173c0,0 -1.242,-0.517 -2.38,-0.517c-2.38,0 -4.759,2.069 -4.759,6.001c0,2.586 1.242,4.345 3.725,4.345c0.828,0 1.966,-0.31 1.966,-0.31z" fill="#5A595A"/>
    <path stroke="null" id="svg_197" d="m76480.807517,6410.127126c-1.448,0 -2.483,0.414 -2.483,0.414l-0.31,1.759c0,0 0.931,-0.414 2.276,-0.414c0.724,0 1.345,0.103 1.345,0.724c0,0.414 -0.103,0.517 -0.103,0.517s-0.621,0 -0.931,0c-1.759,0 -3.725,0.724 -3.725,3.104c0,1.862 1.242,2.276 1.966,2.276c1.448,0 2.069,-0.931 2.173,-0.931l-0.103,0.828l1.862,0l0.828,-5.69c-0.002,-2.484 -2.071,-2.587 -2.795,-2.587zm0.413,4.655c0,0.31 -0.207,1.966 -1.448,1.966c-0.621,0 -0.828,-0.517 -0.828,-0.828c0,-0.517 0.31,-1.242 1.862,-1.242c0.311,0.104 0.414,0.104 0.414,0.104z" fill="#5A595A"/>
    <path stroke="null" id="svg_198" d="m76485.566517,6418.507126c0.517,0 3.104,0.103 3.104,-2.69c0,-2.586 -2.483,-2.069 -2.483,-3.104c0,-0.517 0.414,-0.724 1.138,-0.724c0.31,0 1.448,0.103 1.448,0.103l0.31,-1.862c0,0 -0.724,-0.207 -1.966,-0.207c-1.552,0 -3.104,0.621 -3.104,2.69c0,2.38 2.586,2.173 2.586,3.104c0,0.621 -0.724,0.724 -1.242,0.724c-0.931,0 -1.862,-0.31 -1.862,-0.31l-0.31,1.862c0.105,0.207 0.622,0.414 2.381,0.414z" fill="#5A595A"/>
    <path stroke="null" id="svg_199" d="m76526.846517,6408.471126l-0.414,2.793c0,0 -0.828,-1.035 -1.966,-1.035c-1.862,0 -3.518,2.276 -3.518,4.966c0,1.655 0.828,3.414 2.586,3.414c1.242,0 1.966,-0.828 1.966,-0.828l-0.103,0.724l2.069,0l1.552,-9.932l-2.172,-0.102zm-0.931,5.484c0,1.138 -0.517,2.586 -1.655,2.586c-0.724,0 -1.138,-0.621 -1.138,-1.655c0,-1.655 0.724,-2.69 1.655,-2.69c0.724,0 1.138,0.517 1.138,1.759z" fill="#5A595A"/>
    <path stroke="null" id="svg_200" d="m76469.529517,6418.403126l1.242,-7.449l0.207,7.449l1.448,0l2.69,-7.449l-1.138,7.449l2.173,0l1.655,-9.932l-3.414,0l-2.069,6.104l-0.103,-6.104l-3,0l-1.655,9.932l1.964,0z" fill="#5A595A"/>
    <path stroke="null" id="svg_201" d="m76501.602517,6418.403126c0.621,-3.414 0.724,-6.208 2.173,-5.69c0.207,-1.345 0.517,-1.862 0.724,-2.38c0,0 -0.103,0 -0.414,0c-0.931,0 -1.655,1.242 -1.655,1.242l0.207,-1.138l-1.966,0l-1.345,8.07l2.276,0l0,-0.104z" fill="#5A595A"/>
    <path stroke="null" id="svg_202" d="m76514.431517,6410.127126c-1.448,0 -2.483,0.414 -2.483,0.414l-0.31,1.759c0,0 0.931,-0.414 2.276,-0.414c0.724,0 1.345,0.103 1.345,0.724c0,0.414 -0.103,0.517 -0.103,0.517s-0.621,0 -0.931,0c-1.759,0 -3.725,0.724 -3.725,3.104c0,1.862 1.242,2.276 1.966,2.276c1.448,0 2.069,-0.931 2.173,-0.931l-0.103,0.828l1.862,0l0.828,-5.69c0.102,-2.484 -2.071,-2.587 -2.795,-2.587zm0.517,4.655c0,0.31 -0.207,1.966 -1.448,1.966c-0.621,0 -0.828,-0.517 -0.828,-0.828c0,-0.517 0.31,-1.242 1.862,-1.242c0.311,0.104 0.311,0.104 0.414,0.104z" fill="#5A595A"/>
    <path stroke="null" id="svg_203" d="m76518.983517,6418.403126c0.621,-3.414 0.724,-6.208 2.173,-5.69c0.207,-1.345 0.517,-1.862 0.724,-2.38c0,0 -0.103,0 -0.414,0c-0.931,0 -1.655,1.242 -1.655,1.242l0.207,-1.138l-1.966,0l-1.345,8.07l2.276,0l0,-0.104z" fill="#5A595A"/>
   </g>
   <g stroke="null" transform="matrix(0.31306738697307007,0,0,0.31306738697307007,-23870.315598903555,-2000.2871202497445) " id="svg_204">
    <path stroke="null" id="svg_205" d="m76488.980517,6416.851126c0,1.242 0.724,1.759 1.655,1.759c0.724,0 1.345,-0.207 1.552,-0.31l0.31,-1.759c-0.103,0 -0.31,0.103 -0.517,0.103c-0.724,0 -0.828,-0.414 -0.724,-0.621l0.621,-3.621l1.138,0l0.31,-1.966l-1.034,0l0.207,-1.242" fill="#5A595A"/>
    <path stroke="null" id="svg_206" d="m76493.946517,6414.989126c0,2.897 0.931,3.621 2.586,3.621c1.552,0 2.173,-0.31 2.173,-0.31l0.414,-1.966c0,0 -1.138,0.517 -2.173,0.517c-2.276,0 -1.862,-1.655 -1.862,-1.655l4.242,0c0,0 0.31,-1.345 0.31,-1.862c0,-1.345 -0.724,-3 -3,-3c-2.173,-0.207 -2.69,2.069 -2.69,4.655zm2.586,-3c1.138,0 1.345,1.345 1.345,1.448l-2.69,0c0,-0.103 0.207,-1.448 1.345,-1.448z" fill="#5A595A"/>
    <path stroke="null" id="svg_207" d="m76509.672517,6418.300126l0.414,-2.276c0,0 -1.035,0.517 -1.759,0.517c-1.448,0 -2.069,-1.138 -2.069,-2.38c0,-2.483 1.242,-3.828 2.69,-3.828c1.035,0 1.862,0.621 1.862,0.621l0.31,-2.173c0,0 -1.242,-0.517 -2.38,-0.517c-2.38,0 -3.725,2.069 -3.725,6.001c0,2.586 0.207,4.345 2.69,4.345c0.829,0 1.967,-0.31 1.967,-0.31z" fill="#5A595A"/>
    <path stroke="null" id="svg_208" d="m76478.013517,6412.403126c0,0 0.931,-0.414 2.276,-0.414c0.724,0 1.345,0.103 1.345,0.724c0,0.414 -0.103,0.517 -0.103,0.517s-0.621,0 -0.931,0c-1.759,0 -3.725,0.724 -3.725,3.104c0,1.862 1.242,2.276 1.966,2.276c1.448,0 2.069,-0.931 2.173,-0.931l-0.103,0.828l1.862,0l0.828,-5.69c0,-2.38 -2.069,-2.483 -2.897,-2.483m1.551,4.448c0,0.31 -1.242,1.966 -2.483,1.966c-0.621,0 -0.828,-0.517 -0.828,-0.828c0,-0.517 0.31,-1.242 1.862,-1.242c0.311,0.104 1.449,0.104 1.449,0.104z" fill="#5A595A"/>
    <path stroke="null" id="svg_209" d="m76483.290517,6418.300126c0,0 0.621,0.207 2.38,0.207c0.517,0 3.104,0.103 3.104,-2.69c0,-2.586 -2.483,-2.069 -2.483,-3.104c0,-0.517 0.414,-0.724 1.138,-0.724c0.31,0 1.448,0.103 1.448,0.103l0.31,-1.862c0,0 -0.724,-0.207 -1.966,-0.207c-1.552,0 -2.069,0.621 -2.069,2.69c0,2.38 1.552,2.173 1.552,3.104c0,0.621 -0.724,0.724 -1.242,0.724" fill="#5A595A"/>
    <path stroke="null" id="svg_210" d="m76526.432517,6411.265126c0,0 -0.828,-1.035 -1.966,-1.035c-1.862,0 -2.483,2.276 -2.483,4.966c0,1.655 -0.207,3.414 1.552,3.414c1.242,0 1.966,-0.828 1.966,-0.828l-0.103,0.724l2.069,0l1.552,-9.932m-2.69,5.381c0,1.138 -0.931,2.586 -2.069,2.586c-0.724,0 -1.138,-0.621 -1.138,-1.655c0,-1.655 0.724,-2.69 1.655,-2.69c0.724,0 1.552,0.517 1.552,1.759z" fill="#5A595A"/>
    <path stroke="null" id="svg_211" d="m76469.529517,6418.403126l1.242,-7.449l0.207,7.449l1.448,0l2.69,-7.449l-1.138,7.449l2.173,0l1.655,-9.932l-2.586,0l-2.897,6.104l-0.103,-6.104l-1.138,0l-3.518,9.932l1.965,0z" fill="#5A595A"/>
    <path stroke="null" id="svg_212" d="m76499.429517,6418.403126l2.173,0c0.621,-3.414 0.724,-6.208 2.173,-5.69c0.207,-1.345 0.517,-1.862 0.724,-2.38c0,0 -0.103,0 -0.414,0c-0.931,0 -1.655,1.242 -1.655,1.242l0.207,-1.138" fill="#5A595A"/>
    <path stroke="null" id="svg_213" d="m76511.638517,6412.403126c0,0 0.931,-0.414 2.276,-0.414c0.724,0 1.345,0.103 1.345,0.724c0,0.414 -0.103,0.517 -0.103,0.517s-0.621,0 -0.931,0c-1.759,0 -3.725,0.724 -3.725,3.104c0,1.862 1.242,2.276 1.966,2.276c1.448,0 2.069,-0.931 2.173,-0.931l-0.103,0.828l1.862,0l0.828,-5.69c0,-2.38 -2.069,-2.483 -2.897,-2.483m1.55,4.448c0,0.31 -1.242,1.966 -2.483,1.966c-0.621,0 -0.828,-0.517 -0.828,-0.828c0,-0.517 0.31,-1.242 1.862,-1.242c0.415,0.104 1.449,0.104 1.449,0.104z" fill="#5A595A"/>
    <path stroke="null" id="svg_214" d="m76516.810517,6418.403126l2.173,0c0.621,-3.414 0.724,-6.208 2.173,-5.69c0.207,-1.345 0.517,-1.862 0.724,-2.38c0,0 -0.103,0 -0.414,0c-0.931,0 -1.655,1.242 -1.655,1.242l0.207,-1.138" fill="#5A595A"/>
   </g>
   <path stroke="null" id="svg_215" d="m19.170472,10.641736c-0.043829,0.328721 -0.297414,0.500908 -0.685618,0.500908l-1.433849,0l0,-0.078267l1.34932,0c0.216016,0 0.394465,-0.003131 0.550999,-0.09392c0.112704,-0.059483 0.194102,-0.178448 0.219147,-0.328721z" fill="#F0F1F2"/>
   <path stroke="null" id="svg_216" d="m18.41911,10.034386l-1.368104,0l0,-0.078267l1.449502,0c0.350635,0 0.60422,0.125227 0.663703,0.432033c-0.034437,-0.125227 -0.112704,-0.219147 -0.219147,-0.272369c-0.131488,-0.072005 -0.334982,-0.081398 -0.525953,-0.081398z" fill="#F0F1F2"/>
   <path stroke="null" id="svg_217" d="m38.467946,11.227172c-0.250454,-0.253585 -0.666834,-0.360027 -1.271054,-0.375681l-0.597959,-0.015653c-0.18784,0 -0.313067,-0.012523 -0.432033,-0.053221c-0.13775,-0.056352 -0.244193,-0.172187 -0.244193,-0.347505c0,-0.147142 0.04696,-0.259846 0.169056,-0.334982c0.109574,-0.078267 0.241062,-0.084528 0.447686,-0.084528l2.038069,0l0,-0.992424l-2.22904,0c-1.167741,0 -1.590382,0.710663 -1.590382,1.386889c0,1.471417 1.30236,1.405673 2.341744,1.44011c0.197232,0 0.309937,0.031307 0.397596,0.100182c0.078267,0.065744 0.134619,0.172187 0.134619,0.306806c0,0.128358 -0.053221,0.234801 -0.131488,0.306806c-0.09079,0.087659 -0.241062,0.115835 -0.450817,0.115835l-2.157034,0l0,0.998685l2.166426,0c1.117651,0.003131 1.740655,-0.46334 1.740655,-1.465155c0,-0.478993 -0.115835,-0.763884 -0.331851,-0.986162zm-4.545738,0c-0.250454,-0.253585 -0.666834,-0.360027 -1.267923,-0.375681l-0.597959,-0.015653c-0.190971,0 -0.316198,-0.012523 -0.435164,-0.053221c-0.13775,-0.056352 -0.241062,-0.172187 -0.241062,-0.347505c0,-0.147142 0.04696,-0.259846 0.169056,-0.334982c0.109574,-0.078267 0.241062,-0.084528 0.444556,-0.084528l2.041199,0l0,-0.992424l-2.22904,0c-1.167741,0 -1.590382,0.710663 -1.590382,1.386889c0,1.471417 1.30236,1.405673 2.341744,1.44011c0.194102,0 0.309937,0.031307 0.397596,0.100182c0.075136,0.065744 0.134619,0.172187 0.134619,0.306806c0,0.128358 -0.053221,0.234801 -0.131488,0.306806c-0.09392,0.087659 -0.244193,0.115835 -0.453948,0.115835l-2.153904,0l0,0.998685l2.163296,0c1.117651,0.003131 1.740655,-0.46334 1.740655,-1.465155c0,-0.478993 -0.112704,-0.763884 -0.331851,-0.986162zm-4.242063,-1.236616l0,-0.961117l-3.712979,0l0,4.652181l3.712979,0l0,-0.964248l-2.604721,-0.003131l0,-0.926679l2.538977,0l0,-0.948594l-2.538977,0l0,-0.848413l2.604721,0zm-5.115521,1.5309c0.291153,-0.118966 0.785799,-0.497777 0.785799,-1.239747c0,-0.529084 -0.219147,-0.820237 -0.569783,-1.033122c-0.366289,-0.194102 -0.776407,-0.219147 -1.336798,-0.219147l-2.570283,0l0,4.652181l1.117651,0l0,-1.696825l1.186525,0c0.410118,0 0.654311,0.037568 0.813975,0.203494c0.209755,0.219147 0.181579,0.632396 0.181579,0.911026l0,0.582305l1.117651,0l0,-0.920418c-0.006261,-0.410118 -0.028176,-0.623004 -0.18471,-0.848413c-0.09392,-0.13775 -0.297414,-0.300545 -0.541607,-0.391334zm-0.46334,-0.550999c-0.156534,0.09079 -0.338113,0.09392 -0.550999,0.09392l-1.352451,0l0,-1.029992l1.371235,0c0.190971,0 0.394465,0.009392 0.525953,0.081398c0.144011,0.068875 0.234801,0.212886 0.234801,0.413249c0,0.203494 -0.087659,0.366289 -0.228539,0.441425zm-5.625821,-1.944148l-3.550184,0l-1.415065,1.527769l-1.371235,-1.527769l-4.470602,0l0,4.655312l4.404858,0l1.424457,-1.540292l1.368104,1.540292l2.160165,0l0,-1.562206l1.386889,0c0.97364,0.003131 1.937887,-0.266107 1.937887,-1.555945c0,-1.289838 -0.992424,-1.537161 -1.875274,-1.537161zm-7.222465,3.650366l-2.733078,0l0,-0.923549l2.441926,0l0,-0.951725l-2.441926,0l0,-0.845282l2.7863,0l1.217832,1.355582l-1.271054,1.364974zm4.561392,0.507169l-1.709348,-1.897188l1.709348,-1.834575l0,3.731763zm3.356082,-2.542107c-0.025045,0.150272 -0.106443,0.269238 -0.219147,0.328721c-0.156534,0.09079 -0.334982,0.09392 -0.550999,0.09392l-1.352451,0l0,-1.029992l1.371235,0c0.190971,0 0.394465,0.009392 0.525953,0.081398c0.106443,0.053221 0.18471,0.147142 0.219147,0.272369c0.009392,0.043829 0.015653,0.09079 0.015653,0.14088c0,0.040699 -0.003131,0.078267 -0.009392,0.112704z" fill="#7E7F7F"/>
   <path stroke="null" id="svg_218" d="m37.143671,1.92281l0,3.240247l-1.95354,-3.240247l-1.693695,0l0,4.398597l-1.881535,-4.398597l-1.665518,0l-1.571598,3.656627l-0.497777,0c-0.291153,0 -0.60422,-0.056352 -0.776407,-0.241062c-0.206624,-0.234801 -0.306806,-0.591697 -0.306806,-1.089475c0,-0.488385 0.128358,-0.857805 0.319329,-1.055037c0.219147,-0.216016 0.450817,-0.275499 0.854674,-0.275499l1.055037,0l0,-0.995554l-1.076952,0c-0.767015,0 -1.330536,0.169056 -1.687433,0.541607c-0.472732,0.497777 -0.594828,1.130173 -0.594828,1.818922c0,0.845282 0.203494,1.380627 0.594828,1.778223c0.388204,0.394465 1.07069,0.513431 1.609166,0.513431l1.30236,0l0.41951,-1.039384l2.310437,0l0.432033,1.039384l2.263477,0l0,-3.493832l2.110074,3.493832l1.574729,0l0,-4.652181l-1.139565,0zm-7.166112,2.582806l0.763884,-1.853359l0.773276,1.853359l-1.537161,0zm-5.988979,-2.582806l0,4.652181l1.133304,0l0,-4.652181l-1.133304,0zm-1.430718,2.492016c0.288022,-0.112704 0.782668,-0.497777 0.782668,-1.239747c0,-0.519692 -0.209755,-0.820237 -0.563521,-1.029992c-0.356897,-0.206624 -0.776407,-0.222278 -1.34619,-0.222278l-2.55463,0l0,4.652181l1.111389,0l0,-1.693695l1.192787,0c0.400726,0 0.648049,0.037568 0.810845,0.200363c0.203494,0.222278 0.175318,0.626135 0.175318,0.904765l0.006261,0.588567l1.120781,0l0,-0.914157c0,-0.41638 -0.028176,-0.623004 -0.18471,-0.854674c-0.100182,-0.134619 -0.306806,-0.297414 -0.550999,-0.391334zm-0.594828,-0.616743c-0.153403,0.09079 -0.334982,0.09392 -0.547868,0.09392l-1.352451,0l0,-1.033122l1.368104,0c0.194102,0 0.397596,0.009392 0.529084,0.084528c0.144011,0.068875 0.23167,0.212886 0.23167,0.413249s-0.084528,0.366289 -0.228539,0.441425zm-3.85699,-0.907895l0,-0.967378l-3.71611,0l0,4.652181l3.71611,0l0,-0.964248l-2.604721,0l0,-0.926679l2.542107,0l0,-0.954856l-2.542107,0l0,-0.839021l2.604721,0zm-6.395967,-0.967378l-1.336798,3.155719l-1.455763,-3.155719l-1.815791,0l0,4.404858l-1.890927,-4.404858l-1.652996,0l-1.991109,4.652181l1.20844,0l0.432033,-1.039384l2.316699,0l0.425772,1.039384l2.263477,0l0,-3.647235l1.615428,3.647235l0.97677,0l1.612297,-3.644104l0.003131,3.644104l1.142696,0l0,-4.652181l-1.853359,0zm-8.092792,2.764385l0.754492,-1.853359l0.760754,1.853359l-1.515246,0z" fill="#7E7F7F"/>
  </g>
 </g>
</svg>