<?xml version="1.0" encoding="UTF-8"?>
<!DOCTYPE svg PUBLIC "-//W3C//DTD SVG 1.1//EN" "http://www.w3.org/Graphics/SVG/1.1/DTD/svg11.dtd">
<!-- Creator: CorelDRAW X6 -->
<svg xmlns="http://www.w3.org/2000/svg" xml:space="preserve" width="26mm" height="26mm" version="1.1" style="shape-rendering:geometricPrecision; text-rendering:geometricPrecision; image-rendering:optimizeQuality; fill-rule:evenodd; clip-rule:evenodd"
viewBox="0 0 2600 2600"
 xmlns:xlink="http://www.w3.org/1999/xlink">
 <defs>
  <style type="text/css">
   <![CDATA[
    .fil0 {fill:#22211F}
   ]]>
  </style>
 </defs>
 <g id="Слой_x0020_1">
  <metadata id="CorelCorpID_0Corel-Layer"/>
  <g id="_396552632">
   <path class="fil0" d="M2000 1526l0 -451c0,-10 -7,-19 -16,-21l-209 -62c16,-40 26,-79 26,-115 0,-152 -124,-276 -276,-276 -152,0 -276,124 -276,276 0,36 10,76 26,115l-203 60 -445 -132c-7,-2 -14,-1 -20,4 -6,4 -9,11 -9,18l0 452c0,0 0,0 0,0l0 451c0,10 7,19 16,21l451 134c0,0 0,0 0,0 0,0 0,0 0,0 1,0 2,0 3,1 0,0 0,0 1,0 1,0 2,0 3,0 1,0 2,0 3,0 0,0 0,0 1,0 1,0 2,0 3,-1 0,0 0,0 0,0l0 0c0,0 436,-129 436,-129 3,1 6,2 9,2 3,0 6,-1 9,-2l436 129c2,1 4,1 6,1 5,0 9,-2 13,-4 6,-4 9,-11 9,-18l0 -452c0,0 0,0 0,0l0 0zm-45 -435l0 405 -407 -121 0 -64c29,-30 144,-152 208,-280l199 59zm-429 -446c127,0 231,104 231,231 0,36 -12,77 -31,118 -1,2 -2,3 -2,5 -54,114 -158,230 -198,272 -40,-42 -144,-158 -197,-272 -1,-2 -1,-4 -2,-5 -19,-41 -31,-81 -31,-117 0,-127 104,-231 231,-231l0 0zm-22 667l0 64 -407 121 0 -405 199 -59c65,128 179,250 208,280zm-859 110l154 46c2,1 4,1 6,1 10,0 19,-6 21,-16 4,-12 -3,-24 -15,-28l-167 -50 0 -405 407 121 0 405 -154 -46c-12,-4 -24,3 -28,15 -4,12 3,24 15,28l167 50 0 405 -407 -121 0 -405 0 0zm904 405l0 -162c0,-12 -10,-22 -22,-22 -12,0 -22,10 -22,22l0 162 -407 121 0 -405 407 -121 0 154c0,12 10,22 22,22 12,0 22,-10 22,-22l0 -154 407 121 0 405 -407 -121 0 0z"/>
   <path class="fil0" d="M1526 1032c86,0 156,-70 156,-156 0,-86 -70,-156 -156,-156 -86,0 -156,70 -156,156 0,86 70,156 156,156zm0 -268c62,0 112,50 112,112 0,62 -50,112 -112,112 -62,0 -112,-50 -112,-112 0,-62 50,-112 112,-112z"/>
  </g>
  <path class="fil0" d="M2522 855c52,143 78,293 78,445 0,718 -582,1300 -1300,1300 -718,0 -1300,-582 -1300,-1300 0,-718 582,-1300 1300,-1300 547,0 1035,342 1222,855zm-41 15c50,138 76,283 76,430 0,694 -562,1256 -1256,1256 -694,0 -1256,-562 -1256,-1256 0,-694 562,-1256 1256,-1256 528,0 1000,330 1180,826z"/>
 </g>
</svg>
