<?xml version="1.0" encoding="UTF-8"?>
<!DOCTYPE svg PUBLIC "-//W3C//DTD SVG 1.1//EN" "http://www.w3.org/Graphics/SVG/1.1/DTD/svg11.dtd">
<!-- Creator: CorelDRAW X6 -->
<svg xmlns="http://www.w3.org/2000/svg" xml:space="preserve" width="26mm" height="26mm" version="1.1" style="shape-rendering:geometricPrecision; text-rendering:geometricPrecision; image-rendering:optimizeQuality; fill-rule:evenodd; clip-rule:evenodd"
viewBox="0 0 2600 2600"
 xmlns:xlink="http://www.w3.org/1999/xlink"
 enable-background="new 0 0 463.003 463.003">
 <defs>
  <style type="text/css">
   <![CDATA[
    .fil0 {fill:#22211F}
   ]]>
  </style>
 </defs>
 <g id="Слой_x0020_1">
  <metadata id="CorelCorpID_0Corel-Layer"/>
  <g id="_391797136">
   <path class="fil0" d="M1857 1299c8,-18 16,-36 23,-52 42,-93 42,-94 39,-104 -32,-132 -168,-194 -202,-208 -18,-43 -52,-91 -115,-127 -104,-60 -144,-150 -145,-151 -3,-7 -9,-11 -16,-13 -2,0 -57,-9 -122,3 -56,10 -102,34 -136,68 -37,-30 -86,-40 -122,-44 -35,-4 -70,-2 -78,1 -7,2 -12,8 -14,15 -5,22 -21,46 -36,70 -24,37 -49,76 -44,117 -87,46 -178,132 -192,145 -2,2 -4,5 -5,9 -1,2 -18,52 -26,118 -12,91 -3,166 27,222 1,2 2,3 3,5 -27,50 -17,96 -7,136 7,31 14,59 3,86 -2,6 -2,13 2,19 8,12 107,83 212,94 2,7 4,14 7,21 24,58 82,104 172,138 46,17 79,33 108,47 36,18 66,33 107,41 11,2 23,3 34,3 55,0 113,-24 166,-70 11,-9 26,-18 43,-28 56,-33 132,-77 128,-192 10,-5 19,-11 29,-18 1,1 3,3 5,4 9,5 17,7 25,7 38,0 75,-43 110,-86 27,-32 57,-68 82,-78 6,-3 17,-10 19,-29 4,-40 -32,-130 -83,-171l0 0zm20 -151c-5,13 -21,49 -35,82 -22,49 -41,91 -54,124 -2,-7 -5,-15 -7,-22 -12,-36 -24,-73 -29,-110 -4,-35 -14,-65 -28,-90 16,-42 20,-93 11,-141 46,24 121,75 143,158zm-277 508c-43,20 -92,43 -142,87 -64,56 -146,37 -199,-6 14,-10 28,-23 40,-38 50,-6 101,-24 150,-53 88,-53 155,-136 184,-228 37,-119 -2,-249 -65,-332 22,1 56,6 84,27 31,23 51,61 57,113 5,41 18,80 31,118 19,59 38,115 20,160 -37,94 -91,119 -160,152l0 0zm-679 -122c-18,-39 -41,-66 -61,-88 -27,-32 -49,-57 -56,-109 -16,-121 60,-238 140,-286 22,-13 43,-20 60,-21 -46,52 -98,138 -96,222 1,51 21,92 60,124 10,8 21,16 32,22 -12,38 -7,93 15,144 19,43 65,119 169,149 17,5 35,8 54,10 -31,23 -65,33 -103,28 -81,-10 -162,-84 -213,-195zm112 -684c34,-26 105,-62 195,-9 65,38 128,53 178,64 70,16 107,26 121,69 10,28 -9,47 -18,54 -44,-32 -91,-41 -133,-26 -22,-20 -47,-36 -76,-47 -87,-33 -187,-18 -259,38 -27,-11 -60,-9 -96,8 2,-52 43,-117 88,-151l0 0zm161 800c-87,-25 -126,-89 -141,-125 -19,-43 -22,-84 -15,-109 9,3 19,6 29,8 22,56 80,101 147,113 13,2 26,4 39,4 68,0 133,-33 183,-95 58,-71 112,-170 15,-297 -6,-41 -20,-78 -42,-109 39,-5 75,22 95,40 73,68 127,209 89,327 -26,82 -86,157 -165,204 -77,46 -162,61 -233,41l0 0zm-137 -615c60,-53 151,-69 227,-40 30,12 77,38 104,95 -34,-23 -73,-37 -114,-41 -54,-5 -105,10 -139,41 -63,56 -86,125 -63,189 16,45 54,82 96,94 -43,16 -109,23 -175,-31 -29,-23 -44,-54 -44,-92 -1,-57 36,-152 108,-215l0 0zm151 304c-13,-10 -21,-25 -22,-41 -2,-16 3,-32 13,-45 10,-13 25,-21 41,-22 2,0 4,0 6,0 14,0 28,5 39,14 26,21 30,60 9,86 -10,13 -25,21 -41,22 -16,2 -32,-3 -45,-13l0 0zm39 56c4,0 7,0 11,-1 28,-3 53,-16 70,-38 36,-44 30,-110 -15,-146 -22,-18 -49,-26 -76,-23 -28,3 -53,16 -70,38 -18,22 -26,49 -23,76 0,3 1,6 1,9 -14,-12 -26,-29 -32,-47 -17,-48 1,-98 51,-143 26,-23 65,-34 107,-30 55,5 107,33 141,77 78,99 52,171 -11,249 -68,83 -143,84 -181,76 -44,-8 -83,-34 -105,-68 7,0 13,-1 20,-2 21,-3 54,-11 89,-31 7,2 15,3 23,3l0 0zm79 -707c42,-8 80,-6 97,-4 15,29 62,104 157,159 70,41 97,98 108,139 10,39 8,77 2,106 -4,-4 -9,-8 -14,-11 -45,-33 -96,-36 -124,-35 15,-20 26,-48 14,-83 -23,-67 -82,-81 -152,-97 -50,-12 -107,-25 -166,-60 -21,-13 -42,-21 -61,-26 28,-47 74,-77 138,-89l0 0zm-358 91c14,-22 29,-45 38,-68 30,-1 106,1 150,37 -5,7 -9,15 -13,23 -61,-3 -108,24 -136,45 -11,9 -22,18 -32,29 -14,1 -28,4 -44,9 3,-23 20,-48 37,-75l0 0zm-238 266c12,-11 50,-46 96,-80 49,-37 84,-56 109,-67 -25,43 -37,89 -31,127 -87,62 -161,185 -143,317 3,24 9,44 17,61 -20,-14 -36,-33 -48,-56 -56,-107 -9,-272 0,-302l0 0zm-1 453c-7,-31 -13,-58 -5,-86 26,28 60,48 102,60 0,0 1,1 1,1 19,22 39,44 54,78 10,21 20,40 32,59 0,1 -1,1 -1,2 -6,13 -11,31 -12,51 -73,-10 -140,-52 -165,-70 8,-34 1,-65 -6,-95l0 0zm790 325c-18,11 -35,20 -49,32 -55,47 -114,67 -165,57 -35,-7 -62,-20 -96,-37 -30,-15 -63,-31 -112,-49 -77,-29 -128,-68 -147,-114 -9,-23 -10,-43 -7,-58 14,18 30,35 46,49 43,38 91,62 138,67 8,1 15,1 23,1 24,0 47,-5 69,-14 0,0 1,1 1,1 33,31 77,53 120,59 9,1 18,2 27,2 43,0 84,-15 118,-46 45,-40 89,-60 132,-81 3,-1 6,-3 9,-4 -5,74 -57,104 -107,133l0 0zm286 -275c-19,23 -45,54 -64,65 22,-23 41,-53 57,-94 12,-31 13,-62 7,-95 2,-2 3,-5 3,-7 3,-14 15,-44 30,-78 36,35 59,101 59,123 -32,16 -62,52 -92,86l0 0z"/>
  </g>
  <path class="fil0" d="M2522 855c52,143 78,293 78,445 0,718 -582,1300 -1300,1300 -718,0 -1300,-582 -1300,-1300 0,-718 582,-1300 1300,-1300 547,0 1035,342 1222,855zm-41 15c50,138 76,283 76,430 0,694 -562,1256 -1256,1256 -694,0 -1256,-562 -1256,-1256 0,-694 562,-1256 1256,-1256 528,0 1000,330 1180,826z"/>
 </g>
</svg>
